# xmcd
#
# Track frame offsets:
#   150
#   15512
#   34745
#   51275
#   67590
#   85925
#   99370
#   113912
#   128342
#   140767
#   155602
#   175255
#   192135
#   207120
#   219662
#
# Disc length: 3216 seconds
#
# Revision: 6
# Processed by: cddbd v1.5PL3 Copyright (c) Steve Scherf et al.
# Submitted via: Media_Universe 3.0
#
DISCID=c40c8e0f
DTITLE=Blackhawk - Greatest Hits
DYEAR=2000
DGENRE=Country
TTITLE0=Goodbye Says It All
TTITLE1=I'm Not Strong Enough To Say No
TTITLE2=Every Once In A While
TTITLE3=I Sure Can Smell The Rain
TTITLE4=That's Just About Right
TTITLE5=Big Guitar
TTITLE6=Almost A Memory Now
TTITLE7=There You Have It
TTITLE8=Always Have, Always Will
TTITLE9=Like There Ain't No Yesterday
TTITLE10=Postmarked Birmingham
TTITLE11=Down In Flames
TTITLE12=It Takes A Woman
TTITLE13=I Need You All The Time
TTITLE14=Ships Of Heaven
EXTD=YEAR: 2001 ID3G:   2
EXTT0=
EXTT1=
EXTT2=
EXTT3=
EXTT4=
EXTT5=
EXTT6=
EXTT7=
EXTT8=
EXTT9=
EXTT10=
EXTT11=
EXTT12=
EXTT13=
EXTT14=
PLAYORDER=
